<?xml version="1.0" standalone="no"?>
<!DOCTYPE svg PUBLIC "-//W3C//DTD SVG 20010904//EN"
 "http://www.w3.org/TR/2001/REC-SVG-20010904/DTD/svg10.dtd">
<svg version="1.0" xmlns="http://www.w3.org/2000/svg"
 width="643.000000pt" height="643.000000pt" viewBox="0 0 643.000000 643.000000"
 preserveAspectRatio="xMidYMid meet">
<metadata>
Created by potrace 1.11, written by Peter Selinger 2001-2013
</metadata>
<g transform="translate(0.000000,643.000000) scale(0.100000,-0.100000)"
fill="#000000" stroke="none">
<path d="M4 5651 c-2 -2 -4 -1102 -4 -2443 l0 -2439 1243 4 c1221 3 1243 3
1327 24 383 95 661 289 848 594 87 143 148 310 169 464 12 88 8 319 -6 405
-64 379 -281 701 -601 891 -57 34 -105 55 -264 118 -16 6 -8 13 45 41 316 164
537 473 608 852 30 164 25 376 -13 560 -11 51 -78 232 -108 292 -132 264 -369
486 -621 580 -160 61 -110 59 -1420 60 -659 1 -1200 -1 -1203 -3z m2376 -335
c285 -82 507 -302 610 -607 58 -170 72 -393 36 -554 -34 -147 -106 -304 -191
-415 -144 -187 -369 -322 -578 -347 -34 -4 -476 -7 -982 -8 l-920 0 -3 978 -2
978 982 -3 c920 -4 987 -5 1048 -22z m110 -2240 c424 -91 744 -500 754 -966 4
-180 -32 -325 -125 -499 -156 -291 -424 -483 -722 -517 -46 -5 -1931 -10
-2029 -5 -17 1 -18 56 -18 1001 l0 999 1053 -3 c578 -1 1068 -6 1087 -10z"/>
<path d="M3724 5640 c-104 -255 -254 -670 -251 -690 3 -14 17 -59 32 -100 29
-82 53 -179 61 -243 3 -23 7 -53 10 -66 6 -28 5 -218 -1 -274 -34 -306 -168
-586 -376 -781 -74 -70 -192 -153 -266 -187 -24 -11 -43 -21 -43 -23 0 -3 24
-12 53 -22 190 -62 386 -192 517 -341 35 -40 57 -58 61 -50 4 7 26 64 49 127
23 63 50 138 60 165 18 46 192 522 281 768 76 209 118 323 160 437 23 63 50
137 59 164 13 40 18 46 24 30 8 -20 132 -372 303 -859 57 -165 115 -329 128
-365 13 -36 42 -119 65 -185 23 -66 71 -201 106 -299 35 -99 60 -182 55 -185
-5 -4 -268 -6 -585 -6 -384 0 -576 -3 -576 -10 0 -5 10 -30 21 -55 52 -113 75
-191 104 -355 3 -16 8 -77 10 -134 2 -57 6 -106 9 -109 3 -3 275 -5 603 -5
l597 0 197 -526 c108 -289 210 -562 226 -606 l29 -80 487 -3 c268 -1 487 2
487 6 0 5 -33 96 -74 203 -41 107 -160 421 -265 699 -105 278 -196 516 -201
528 -6 13 -51 133 -101 265 -50 133 -95 251 -100 262 -8 18 -132 344 -194 510
-12 33 -54 143 -93 245 -39 102 -113 298 -166 435 -52 138 -167 441 -256 675
-89 234 -175 459 -190 500 -15 41 -51 136 -79 210 -29 74 -69 178 -88 230 -20
52 -41 99 -45 105 -6 6 -161 10 -423 10 -360 0 -416 -2 -421 -15z"/>
</g>
</svg>
